<?xml version="1.0" encoding="utf-8"?><svg xmlns="http://www.w3.org/2000/svg" version="1.1" baseProfile="tiny" width="800" height="600" viewBox="0 0 800 600"><g><g stroke="#000000" stroke-width=".98" fill="none"><path d="m786.22 367.47l4.34-6.01.18-.33.47-.88 1.44-2.64 1.45-2.66.47-.87.19-.34.13-.5.11-.49-.01-.43-.02-.45-.11-.55-.12-.53-.42-.77-.5-.6-.48-.57-.66-.51-.66-.51-1.11-.52-1.11-.52-3.34-.76-1.52-.09-.96.1-.9.11-.02 0-2.72.61-2.24 1.05-2.36 2.32-3.16 4.04 0 .01-.43.54-.55.68-.25.29-.57.68-1.67 1.97-1.65 1.93-.54.63-.2.24-14.03-4.23 0 0-3.14-1.03 0 0-.41-.13-1.2-.38-4.56-1.46-7.12-2.27-9.27-2.95-11.04-3.53-12.41-3.96-27.29-8.7-27.74-8.86-12.92-4.13-11.66-3.72-9.93-3.18-7.71-2.46-4.99-1.6-1.33-.43-.48-.16-.55-.18-1.47-.47-5.17-1.65-7.29-2.32-8.39-2.66-8.41-2.66-7.37-2.34-5.24-1.65-1.48-.47-.53-.17-.74-.23-1.9-.58-5.71-1.77-5.71-1.77-1.88-.59-.72-.22-9.89-3.23 0-.01-1.57-.48-1.57-.49-.55-.18-1.46-.47-4.43-1.42-4.45-1.43-1.48-.47-.57-.19-.93-.31-.91-.31-.55-.18-1.44-.45-4.37-1.36-4.39-1.37-1.45-.46-.56-.17-.82-.27-2.13-.69-6.45-2.08-6.47-2.09-2.14-.69-.82-.26-1.37-.44-3.01-.95-3.01-.95-1.39-.44-.6-.19-1.55-.49-4.71-1.49-4.71-1.49-1.56-.49-.59-.19-1.12-.37-1.12-.38-.6-.18-1.31-.4-1.3-.4-.6-.18-1.29-.43-1.28-.42-.64-.21-1.7-.53-5.14-1.62-5.15-1.62-1.71-.53-.65-.21-1.59-.51-3.47-1.13-3.48-1.13-1.6-.51-1.55-.49-4.06-1.29-5.74-1.82-6.62-2.09-6.63-2.1-5.82-1.84-4.12-1.31-1.59-.5-.75-.25-1.94-.62-5.87-1.89-5.89-1.9-1.94-.63-.75-.24-1.48-.46-3.23-1.01-3.25-1.02-1.53-.48-1.2-.38-3.1-.99-9.38-2.98-9.41-3-3.11-.99-1.19-.38-.76-.25-1.67-.55-1.66-.55-.79-.25-1.3-.41-3.4-1.08-10.34-3.27-10.4-3.29-3.45-1.1-1.33-.42-.97-.31-2.53-.81-7.67-2.44-7.7-2.45-2.55-.81-.97-.31-1.71-.54-3.73-1.17-3.73-1.18-1.7-.54-.54-.17-1.5-.48-5.4-1.71-7.65-2.44-8.81-2.8-8.84-2.82-7.75-2.47-5.5-1.75-1.55-.49-.54-.18.33-.6.43-.72.38-.65.32-.53.27-.66.22-.66.14-.64.14-.65.06-.78.06-.75-.19-.84-.19-.85-.33-.81-.37-.83-.45-.72-.41-.7-.58-.69-.57-.69-.81-.82-.98-.97-1.06-.7-.88-.55-1.08-.56-1.08-.56-1.11-.44-1.12-.45-1.53-.37-1.57-.39-1.62-.22-1.58-.22-1.06-.08-1.29-.09-2.45.05-1.48.09-.93.09-.97.15-1.2.2-1.25.33-1.37.35-1.38.49-1.01.41-.8.37-1.05.49-.83.48-.59.38-.93.66-.97.7-.94.92-.6.64-.57.6-.01.02-.39.63-.43.73-.43 1.15-.24.65-.2.67-.07.85-.08.78.08.57.11.87.15.9.12.61.29.71.4.99.52.94.41.65.73.82.76.85.92.75.89.74 1.04.65 1.04.64 1.16.56 1.27.61 1.19.42 1.08.36 0 .01-.3.41-.77 1.07-2.36 3.24-2.37 3.26-.78 1.08-.31.42-.22.28-.52.68-1.59 2.07-1.63 2.11-.83 1.09-.89 1.19-.85 1.17-.39.54-.9 1.26-2.67 3.71-2.63 3.65-.87 1.2-.33.46-.42.54-.9 1.16-.9 1.16-.42.54-.23.31-.6.84-1.84 2.52-1.84 2.52-.61.83-.23.32-.41.59-.88 1.26-.89 1.26-.4.58-.35.48-1 1.38-1.54 2.13-2 2.77-5.01 6.93-5.74 7.94-5.74 7.94-5.01 6.93-2 2.76-1.54 2.13-.99 1.38-.35.48-.24.34-.63.88-1.89 2.65-1.9 2.66-.62.87-.24.34-.37.51-.8 1.1-.8 1.1-.37.51-.49.64-1.07 1.4-1.06 1.39-.48.64-.47.67-1.03 1.48-1.03 1.47-.47.68-.41.58-.87 1.29-.87 1.28-.41.59-.24.33-.65.89-2.15 2.91-2.62 3.56-2.3 3.13-2.98 4.09-1.55 2.12-1.9 2.58-1.78 2.39-.63.83-.25.33-.2.29-.57.8-2.02 2.86-2.85 4.04-3.28 4.64-3.27 4.63-2.87 4.06-2.03 2.87-.58.82-.22.3-.68.93-1.42 1.96-1.41 1.95-.65.89-.6.83-1.58 2.17-2.22 3.07-2.56 3.52-2.56 3.54-2.25 3.09-1.6 2.23-.64.9-.6.84-1.5 2.08-2.1 2.9-2.39 3.3-2.39 3.3-2.08 2.88-1.49 2.04-.58.8-.28.39-.71.95-2.11 2.86-2.09 2.84-.69.93-.26.36-.19.26-.49.68-1.49 2.06-1.49 2.07-.49.68-.19.26-.25.3-.53.65-.54.65-.24.29-1.61-.34-1.78-.38-1.82-.19-1.88-.16-1.13.07-2.17.16-2.11.17-.95.07-4.18 1.08-.52.29-1.14.65-1.14.65-.53.32-.36.34-.79.71-.79.71-.36.31-1.27 2.71-.3.91-.31 1.05-.09 1.08-.09.95.1.89.08.86.29.76.32.79.39.78.39.78.48.7.55.77.51.49 1.02.99 1.01.97.49.45.59.35 1.24.73 1.23.73.56.32 5.17 1.59.45-.32 1.21-.82 3.7-2.53 3.77-2.57 1.3-.89.59-.4.47-.33 1-.68 2.85-1.98 2.83-1.95.96-.67.43-.29.83-.52 1.57-.96 1.54-.95.72-.44.81-.34 1.7-.71 1.69-.7.77-.32 1.33-.35 3.58-.92 5.22-1.36 6.24-1.62 13.11-3.42 5.67-1.48 4.29-1.13 7.28-1.94 2.6-.69 1.01-.27" /></g></g></svg>